# xmcd CD database file generated by LOLA_Freedb v0.9beta0
# 
# Track frame offsets:
#      150
#      14735
#      27772
#      41130
#      54735
#      70635
#      84782
#      97602
#      109135
#      117062
#      126712
#      140147
#      152227
#      164535
#      175360
#      188157
#      200102
#      212765
#      225692
#      238322
# 
# Disc length: 3351 seconds
# 
# Revision: 4 
# Processed by: cddbd v1.5.2PL0 Copyright (c) Steve Scherf et al.
# Submitted via: LOLA_Freedb v0.9beta0
# 
DISCID=240d1514
DTITLE=Hugo Strasser - Collection 3
DYEAR=1900
DGENRE=Unknown
TTITLE0=Hugo Strasser - Ramona
TTITLE1=Plaisir D`Amour
TTITLE2=Les Bicyclettes De Belisze
TTITLE3=Sag` Beim Abschied Leise Servus
TTITLE4=Du Du Du
TTITLE5=There`s A Kind Of Hush
TTITLE6=La Le Lu
TTITLE7=Der Schleier Fiel
TTITLE8=You`re Cream In My Coffee
TTITLE9=Fridolin
TTITLE10=Goody Goody
TTITLE11=Lady Quick
TTITLE12=La Cumparsita
TTITLE13=Hernando`s Hideaway
TTITLE14=El Cholo
TTITLE15=Olé Guapa
TTITLE16=Wunderbar
TTITLE17=Donauwellen
TTITLE18=Dance Little Bird
TTITLE19=Oh Susanna
EXTD=
EXTT0=Walz   30 bpm
EXTT1=Walz   30 bpm
EXTT2=Walz   30 bpm
EXTT3=Walz   29 bpm
EXTT4=Slow Fox   30 bpm
EXTT5=Slow Fox   30 bpm
EXTT6=Slow Fox   29 bpm
EXTT7=Slow Fox   29 bpm
EXTT8=Quickstep   52 bpm
EXTT9=Quickstep   50 bpm
EXTT10=Quickstep   49 bpm
EXTT11=Quickstep   52 bpm
EXTT12=Tango   31 bpm
EXTT13=Tango   33 bpm
EXTT14=Tango   33 bpm
EXTT15=Tango   33 bpm
EXTT16=Vienna Walz   60 bpm
EXTT17=Vienna Walz   60 bpm
EXTT18=Foxtrott   42 bpm
EXTT19=Square Dance   30 bpm
PLAYORDER=
